<svg xmlns="http://www.w3.org/2000/svg" data-name="Layer 1" viewBox="0 0 327.8 288.1"><defs><style>.cls-1{fill:#6c3f21;}</style></defs><title>burst2</title><path class="cls-1" d="M59.5 131.5 17 63.4l37.4 1.9-16-26.4L90.7 49.5s1.8-36.4 2.1-36.6S141 30.8 141.3 30.5s1.8-27.9 2-28S173.5 29.9 173.5 29.9l21.4-22.1 10.7 17.9L218.4 6.8l15.9 24.7L272.5 2.1 252 50.4l12.9-0.8L264 63l39.1-13.4L275.8 83.8l34.9-4.7-21.2 40.7 40.3 47-25 21.5L325 222.8l-35.9-11.9L274.6 259.4l-30.9-12.6-24.4 37.5-32-16.8-18.2 18.9-8.5-22.9-28.5 26.8L123.5 263.5l-43.7 18 15.6-34.2-44.1 9L68 197.8 2 203.5Z" transform="translate(-2.01 -2.11)"/></svg>