<svg width="332" height="292" xmlns="http://www.w3.org/2000/svg" xmlns:xlink="http://www.w3.org/1999/xlink">
  <defs>
    <path d="M57 133.3c1.78-2.12 1.98-5.7.46-8.02L16.23 62.53c-.6-.93-.22-1.6.9-1.53l35.2 2.62c1.1.08 1.52-.6.92-1.53l-15.6-24.2c-.6-1-.2-1.5.86-1.3l49.9 11.2c1.1.2 2-.5 2-1.6l1-34.2c.1-1.1.9-1.7 2-1.3L139 28.6c1.02.4 1.9-.17 1.93-1.28l.95-25.83c.04-1.2.72-1.4 1.53-.7l29.1 27 21.4-22 9.9 17.1c.6.93 1.5.93 2.1 0l10.67-17.5c.58-.96 1.5-.96 2.07 0l13.7 23.15c.58.95 1.74 1.17 2.6.5L270.97.4c.85-.7 1.2-.4.73.6l-20.6 46.2c-.48 1.03.03 1.7 1.13 1.56l10.48-1.6c1.1-.18 1.88.6 1.7 1.7L262.8 60c-.17 1.1.55 1.68 1.57 1.3l36.8-13.64c1.02-.38 1.3 0 .6.85L275.1 80.8c-.7.85-.4 1.4.7 1.22l32.73-5.22c1.1-.17 1.54.48 1 1.44l-20.76 38c-.53.97-.37 2.43.38 3.26l39.18 44.1c.73.84.63 2.06-.24 2.75l-23.5 18.6c-.9.7-1.1 2-.6 2.96l19.7 32c.6 1 .2 1.4-.8 1l-33.3-12.1c-1.1-.4-2.1.2-2.4 1.3l-5.6 23.4c-.28 1.1-1.3 1.7-2.4 1.4l-9.8-3.1c-1.07-.35-1.7.26-1.45 1.3l5.66 23.38c.27 1.1-.35 1.6-1.36 1.18L242.47 245l-22.94 36.57c-.6.94-1.87 1.26-2.8.7l-28.9-16.4c-.98-.52-2.35-.3-3.1.54l-15.5 17.6c-.73.84-1.6.65-1.94-.4l-7-21.12c-.3-1.03-1.2-1.25-2-.5L132 287.9c-.77.76-1.43.5-1.46-.6l-.67-21.75c-.03-1.1-.68-1.34-1.46-.54l-20.1 20.7c-.7.8-1.6.6-1.8-.5l-3.1-15.4c-.2-1.1-1.2-1.5-2.13-1L80 279.6c-.97.5-1.62.03-1.43-1.06l4.94-29.6c.2-1.1-.5-1.75-1.6-1.5l-30.6 7.1c-1.1.26-1.5-.32-1-1.3l16-28.8c.6-.95.1-1.7-1-1.64l-19.6.9c-1.1.06-1.4-.57-.6-1.42L66.8 197c.7-.84.4-1.44-.7-1.33l-64 6.1c-1.1.1-1.43-.5-.73-1.35l55.7-67.1z" id="a"/>
  </defs>
  <use stroke="#6C3F21" stroke-width="3" fill="#6C3F21" xlink:href="#a" transform="translate(1 2)" fill-rule="evenodd"/>
</svg>
