<svg xmlns="http://www.w3.org/2000/svg" viewBox="0 0 136.8 120.6"><defs><style>.cls-1,.cls-4{fill:none;}.cls-2{fill:#d8bd8a;}.cls-3{fill:#401219;}</style></defs><g id="Layer" data-name="Layer"><path class="cls-1" d="M100 41.4l-.5 1 .6-1zm-74.4 65zM2 118.3z"/><path class="cls-2" d="M100.4 41l.5-.5a34.3 34.3 0 0 1 8-18c-4.4 4.5-8.3 9-9.2 14.4a13 13 0 0 0 .6 4zm-.2.3zm-99 72.5H.8c0-.5 1-1.2 1-1.2a2.5 2.5 0 0 1 1.3-.3l1.2.3a22.5 22.5 0 0 1 3-.4 14 14 0 0 1 3.2 1.8 12.7 12.7 0 0 0 1.7.5c2.3-1 .4-.2 10-6 .6-.4 1.4-.5 2.6-1.2l.7-.6a14.6 14.6 0 0 0-2.2 0c-1 1-10.3 7.3-11 7.2-3.6-.8-1.6-2.8-6.6-2.3-1 .2-2.4-.2-3 .2-.3 0-1 .5-1 .5l-.6.3c-.3.7-.5 1-.3 1.6 0-.5.8-.8 1.2-1zm25 2.2c2.5-.3 7-1.4 9-3a20.2 20.2 0 0 1 2.7-2v-1a14.2 14.2 0 0 0-4.2 2.2c-5.6 3.2-6.2 3.4-7.7 3.8zm-21.4 2l-.8-.6c-2.4.2-2 1-2 1a10.5 10.5 0 0 1 2.8-.4zm25.7-27.6c4.7 1.6 3.8 1 6 1.3.6 0 1.5.6 2 .4a3.8 3.8 0 0 0 1.5-1.5 7 7 0 0 0 .2-2 5.2 5.2 0 0 0-1-.3 8 8 0 0 0-2 .6c-2-.7-1.7-.7-6-.8l-3.2-.8a2.8 2.8 0 0 1 0-.6l-1.3.8 1.3 2.8zM9 42.4c.3 0 1 0 1.3.2 2.7 1 3 .6 3.4-.4-.2-1-.7-2.5-1-3.2 0-.3-.5-.7-.4-1a1.4 1.4 0 0 1 .6-.7s-1-.5-1-.2a5.3 5.3 0 0 0-.3 1.4 28 28 0 0 1 1 3.3c0 .2-1.6 0-1.6 0L6.8 40s-1.4-1-2-.7H4a4 4 0 0 0-.5 1 6 6 0 0 0 .8.3c1 0 2.4 1.2 4.7 1.8zM130.3 1a2.8 2.8 0 0 1 1.4-.2c.2 0 .4.6.6.6s.5-.5.7-.6L133 0l-3.5.8-1 1.6h1a3.7 3.7 0 0 1 1-1zm-15 7.5a4.7 4.7 0 0 1 2.4-.6 5 5 0 0 1 .8 0 3 3 0 0 1 2.5-2.6 13.5 13.5 0 0 0 7.3-3c-2.3.4-2 .5-4.3 1.7a5 5 0 0 1-2 .8 8 8 0 0 0-2 0 3.7 3.7 0 0 0-1.5 1.5c-.2.4-2 1-2.4 1.2-1.6.2-1.4.7-1.8 1a3 3 0 0 0-.7 1.2 12.3 12.3 0 0 0 0 2.7v5a11 11 0 0 0 .8-3.4c.2-2.3-.7-4 1-5.2z"/><path class="cls-2" d="M114.2 17.5a62.2 62.2 0 0 0 4.5-4.5 3.6 3.6 0 0 0 .3-2.5c0-.6-.3-1.2-.4-2V9c-4.7-1-2.6 3.2-4.4 8.4z"/><path class="cls-3" d="M136.5.8h-.8l-.5-.4a2.7 2.7 0 0 0-1.2 0 4.3 4.3 0 0 0-1 .4c-.2 0-.4.6-.6.6s-.5-.6-.7-.6a3 3 0 0 0-2 .8c0 .2-.5.7-.5.7h-1c-5 4.3-8.8 1.6-9.6 5.6a5 5 0 0 0-.8-.2 4.7 4.7 0 0 0-2.4.6c-1.8 1.2-1 3-1.2 5.2a11 11 0 0 1-.8 3.5c-1 1.2-13.6 11.7-15.2 19.3a9.6 9.6 0 0 0 .5 6.4L87.7 57l-3.3 2a30.2 30.2 0 0 0-5.6 5.3 28.3 28.3 0 0 0-3.2 7c-.3 1-1.6 8.6-1.6 8.6s-2.7 1.5-3.7 2a37 37 0 0 1-5.5 1.4c-2.2.4-11 .6-13 .8a15 15 0 0 1-1.6 0c-12.6-16.6-10-13.3-23-28-.8-1.2-2.5-3.4-3.5-4.4-3.8-4-2-2.4-4.4-4.4-1-5.3-1.7-5-3.3-6.7a14.5 14.5 0 0 1-1.3-1.7c-.4-.6-1-2.2-1.8-1.8a1.4 1.4 0 0 0-.8.8l.5 1 1 3c-.6 1-.7 1.4-3.5.5A11.6 11.6 0 0 1 5.7 41a15.3 15.3 0 0 0-2.2-.7 1 1 0 0 0-.6 0 1.8 1.8 0 0 0-.8.4 1.7 1.7 0 0 0 0 1c0 .3.7.2 1 .4a7 7 0 0 1 1 1A15.8 15.8 0 0 1 7 44.7l2.6 1c4.2 2 3 1.3 5.4 3.3l4.2 6.3c2.8 4.7 4 9 9 15.2 1.6 2.2 5.4 6 7.5 9.2a26.7 26.7 0 0 1 2.7 5 19.6 19.6 0 0 1 .3 2.8c-2.4-.7-7.2-2.3-9.6-1.7-.3 0-1.2.4-1.2.8a2.8 2.8 0 0 0 .2.6c4 1 2.6.8 5.8 1a9 9 0 0 1 3.5.7 8 8 0 0 1 1.8-.6 5.2 5.2 0 0 1 1.2.4 7 7 0 0 1-.2 1.8 3.8 3.8 0 0 1-1.6 1.7c-.5 0-1.4-.4-1.8-.5-2.2-.4-1.4.3-6-1.4l-2.8-.4-1.4-2.8c-2.7 1.4-3 1.6-4.5 4l-2 2.3a6.4 6.4 0 0 0-1.4 1.3 2 2 0 0 0 0 1.2 1.7 1.7 0 0 0 1.5.6 2.6 2.6 0 0 0 1-.6c.5-.5 1-2.7 1.7-3s2 .4 2.8.3a6.4 6.4 0 0 0 1.7-1c1.5 1.5 4 4 5.6 2.6.4-.4.4-1.4.7-1.7a2.8 2.8 0 0 1 1.7-1 1.4 1.4 0 0 1 1.5 1.8c-.2 1-.2.8-1 3h.4s2-2 4-2.4a3 3 0 0 1 2.6.7c.5.7.5 2.2 2 3l8.3 2.6c3.4 2 4.6 3 7 4.4 1 .4-3.3 4-5.5 3.8s-3-.3-7.4-2.5a1.6 1.6 0 0 1-.6-1.6l.3-.8s-3.2-.3-4.2 0c-.3.2-1.6.5-2 .6a2.3 2.3 0 0 1-1.7.3c-.3 0-1.6 0-1.7-.3a7.4 7.4 0 0 0-1.5-1.8c-1.8 4.7-1.3 4.6-4.3 6.2 0 0 1.8.8 2.3.5a9.2 9.2 0 0 0 .8-1.5l1-1.4c0-.7 7.2-1 9-.8v.6a8.2 8.2 0 0 1-.6 1.3 29.3 29.3 0 0 0-9.3 2c-.2 0-.4-.7-.4-.7a11.7 11.7 0 0 1-2 2.7 47.6 47.6 0 0 1-6 1.7 74.3 74.3 0 0 1-13 3 10.7 10.7 0 0 1-5.5 2.5 4.5 4.5 0 0 1-2-1 6 6 0 0 0 1.5-.8c.5-.4-1-1-1-1a13.6 13.6 0 0 1-1.6-.8s-1.5-.5-1.8-1c0-.3.6-.5.7-.7.2-.6 3-.4 3-.4 2 0 5.5 2 7.6.8 4.6-2.2 10-4.6 12.3-7l-.5-1-1 1c-3 1.6 1-1.5-11.6 6.6l-1 .5a12.7 12.7 0 0 1-1.6-.5 14 14 0 0 0-3-1.7 22.5 22.5 0 0 0-3.2.4l-1.4-.4a2.5 2.5 0 0 0-1.4.3s-1 .7-1 1.2h.6c-.4 0-1.3.5-1.2 1 .5.4-.3 0 1.7 1.2a11.6 11.6 0 0 1 3 2 10.7 10.7 0 0 0-2.8.5.8.8 0 0 0 0 .8 28 28 0 0 1 5.2 1.4c1.7 0 3-.5 6-2.3 15.6-2.7 13.4-2 20.7-6 1.2-1.3 8-5 14.7-2.7 3 1 11 4.8 12 4.8 4.8 0 7-6.6 7-6.6l7-5c7-4.8 15.4-12 19-16 8.8-10.5 14.6-31 14.6-31l2-7.2c.8-2 1.6-2.7 2-4.5 1-4.7-.3-3.4.3-8 .4-2.6 11.2-19.5 11.6-20.3 1.3-2.6 9.4-10 10-10.2.8-.6 1.3-2 2.5-4.3 0 0 0-.8-.3-1zM115 12.4c.2-3 1-4 3.6-3.5v-.4c0 .6.4 1.2.5 2a3.6 3.6 0 0 1-.3 2.4c-.4.6-4 4-4.6 4.5a20.3 20.3 0 0 0 1-5zm-6 10a34.3 34.3 0 0 0-8 18l-.6.7a13 13 0 0 1-.6-4c1-5.5 5-10 9.3-14.4zm-8.8 19l-.7 1zM42.8 93.5c-.2-.3-.6-2-1.3-4.4a35 35 0 0 0-3-8C36 77.3 28.2 67.7 26 64.6c-5-7.4-.2.5-9.4-14.8C13.4 46 13 46 10.4 45c-3.4-.6-2.8-.8-4.5-1.8S4.6 42 4.6 42l3 1 6.4 1.5.5-1.2c.3-1-1-3.5-1-3.6a1.8 1.8 0 0 1 .2-.2c.6-.6 1 1 1.6 2 0 .3 2 2 2 2.6.3.5.2 1.4.4 1.8a13.8 13.8 0 0 0 1.8 3.2l2.7 2.6c1.5 1.6 3 3.6 9 10.2 0 0 5.4 6.8 7 9.3 2.4 4 8 10.6 11 14.4 1 .7 8-1.2 9 0 .6.3 2.7 6.3 2.7 6.3a73 73 0 0 0-7.8 6.8c-6.2 0-8-.6-10.2-4.7zm40.4 1C82.4 96 66 107.3 66 107.3l-2-2a24 24 0 0 0 2-3c.7-1.4 1.6-3 .8-5-1.4-4.5-3.5-5-6-12.4 4.8 0 9.8 0 13.5-3 2.3 0 5.7 3.2 7 5a15.8 15.8 0 0 1 2.2 5 5.3 5.3 0 0 1-.3 2.5zm7.2-32a17.3 17.3 0 0 1-1.7 3.3c-2 3.3-2 3.5-3.6 4.3-1 .6-3.4 0-4.7 3.2-.5 1.3-.5 3-1.2 5-.8 2.4-1 3-2.4 2.6-.4 0-1.2-.2-1.4-.6-.4-.7 1.5-6.7 1.5-6.7a23.6 23.6 0 0 1 4-8.3 36.2 36.2 0 0 1 3.4-3.8c2-1.8 5.2-2 6.2-.5a3 3 0 0 1 0 1.8zm43.5-58a6.8 6.8 0 0 1-1 .8l-1 1.2c-8.3 8-6.4 5.8-9 9.6-4.5 8-8.8 12.8-11.8 20.8-.3 1 .3 4 0 5-.3 1.5-1 2-2.6 5-1.3 2.4-3.6 15-7.7 20.6-2.7-3-6-6.2-13-9.2l4-5.2c2.3-2.5 8.4-9.5 10-12.4 1-2.2 2-7 3-9.4 2.5-6 6.6-9.4 11.8-15 2.8-2.8 3.8-3.6 2.7-7-1-2.4 2.4-3.2 5-3.8a10.4 10.4 0 0 0 3-1.5c.3 0 .6-.5 1-.6A3 3 0 0 1 130 3c.4 0 1.2.5 1.4.3.5-.3 1 0 1.4 0a1.5 1.5 0 0 1 1 .2c.2.2.2.8 0 1z"/><path class="cls-2" d="M59.8 105.7c-2.5-1.6-3.7-2.6-7-4.5l-8.5-2.7c-1.4-.7-1.4-2.2-2-3A3 3 0 0 0 40 95c-2.2.2-4 2.5-4 2.5h-.4c1-2.3 1-2.2 1-3a1.4 1.4 0 0 0-1.3-1.7 2.8 2.8 0 0 0-1.6 1c-.3.2-.4 1.3-.7 1.5-1.8 1.4-4-1-5.6-2.7a6.4 6.4 0 0 1-1.8 1c-.7.2-2-.5-2.8-.2s-1 2.5-1.5 3a2.6 2.6 0 0 1-1 .6c0 .3-.3 2 0 2.8.3 1.2 1 1.2 1.7 3.5a4.4 4.4 0 0 0 1.7 2.2 8.2 8.2 0 0 1 1.8 1.2.2.2 0 0 1 0 .2l.4 1c-2.5 2.4-8.4 5-12.6 7-2 1.2-5.5-.8-7.6-1 0 0-2.8 0-3 .4 0 .3-.8.4-.7.7.3.7 2 1.2 2 1.2a13.6 13.6 0 0 0 1.5 1s1.5.4 1 .8a6 6 0 0 1-1.6.7v.3s1.4 1 1.8 1a10.7 10.7 0 0 0 5.5-2.7 74.3 74.3 0 0 0 13-3 47.6 47.6 0 0 0 6-1.7 11.7 11.7 0 0 0 2-2.7s.2.6.4.6a29.3 29.3 0 0 1 9.3-2.2 8.2 8.2 0 0 0 .5-1.3v-.5c-1.8-.2-9 0-9 .7l-1 1.4a9.2 9.2 0 0 1-1 1.6c-.4.3-2.2-.4-2.2-.4 3-1.6 2.5-1.6 4.3-6.3a7.4 7.4 0 0 1 1.6 1.8c0 .3 1.4.3 1.7.4a2.3 2.3 0 0 0 1.7-.2l1.8-.4c1-.3 4.2 0 4.2 0l-.3 1a1.6 1.6 0 0 0 .7 1.5c4.4 2.2 5.4 2.5 7.5 2.6 1.6.2 4.5-1.7 5.5-3 .4-.4.3-.5 0-.6zM22.4 101c0 .2-.5.2-.6 0a6.7 6.7 0 0 1-1-2c0-.4 0-2 .4-2s.8.5.8.7v1a12.8 12.8 0 0 0 .4 1.3s.2 1 0 1zm4.3 4.4l-.3.3s-.3.5-.7 0h-.3l.3-.7c1 0 1.3-.4 1 .4zm.4-4.4l-.4.7a3.6 3.6 0 0 1-.4.5l-1 .5a1.4 1.4 0 0 0 0 .8c0 .4.8.7-.3 1a5 5 0 0 1-1.2-.2 2 2 0 0 1-.7-.6 1 1 0 0 1 0-.6c.2 0 .7-.4.6-.6s-.6-.4-.5-.6 1.4.3 1.4.3l.6.2.4-.8a2.6 2.6 0 0 1 .3-.7c.2-.2 1-.6 1.2-.5s.5.8.4 1zm2.7 7.6c-.4 0-.4-.4-.4-.4h-.8c-.3-.4 0-.6 0-.8 0 0-.4.2-.7 0-.5-.4 0-1.7.8-1.4l.7-.4a.8.8 0 0 1 .4.3s0 .5.3.6h.6v.5c0 1 .5 1.3-.6 1.6z"/><path class="cls-4" d="M2.2 118.4H2m.3 0"/><path class="cls-2" d="M60.8 91.6s-2-6-2.8-6.3c-1-1-8 .8-9 0C46.2 81.7 40.4 75 38 71c-1.6-2.5-7-9.3-7-9.3-6-6.6-7.5-8.6-9-10-.6-.8-2-2-2.6-2.8a13.8 13.8 0 0 1-1.8-3.3c-.2-.4 0-1.2-.3-1.6-.2-.7-2-2.3-2-2.6-.6-1-1-2.5-1.7-2a1.8 1.8 0 0 0-.2.2c-.3.2 1 2.5.8 3.6l-.4 1.2a25 25 0 0 1-4.4-1c-2.3-.4-1 0-4.7-1.4 0 0-.6.3 1.2 1.3s1 1 4.4 1.7c2.6 1 3 1 6.4 4.7C26 65 21 57 26.2 64.5c2 3 9.8 12.6 12.2 16.8a35 35 0 0 1 3.2 8c.6 2.2 1 4 1.2 4.3 1 1.6 2.2 3.7 4.4 4.2a30.7 30.7 0 0 0 6 .5 73 73 0 0 1 7.6-6.8zm-14.6-4.3a1 1 0 0 1 .6-.6c.5 0 1.8 1.2 2 1.5 0 0 2 .8 2.2 1.4a1 1 0 0 1 0 .7 1.7 1.7 0 0 1-1.2.4c-.6 0-3.8-2.4-3.6-3.4z"/><path class="cls-3" d="M49.8 90.7a1.7 1.7 0 0 0 1.2-.3 1 1 0 0 0 0-.8c-.3-.5-2-1.4-2-1.4-.4-.3-1.7-1.6-2.2-1.5a1 1 0 0 0-.6.7c-.2 1 3 3.2 3.6 3.3z"/><path class="cls-2" d="M81.3 87c-1.3-1.8-4.7-5-7-5-3.7 3-8.7 3-13.5 3 2.5 7.4 4.6 8 6 12.3.8 2.2 0 3.7-.7 5a24 24 0 0 1-2 3.2l2 2s16.4-11.5 17.2-13a5.3 5.3 0 0 0 .3-2.5 15.8 15.8 0 0 0-2.2-5zm3-25.6c-2 1.5-6.5 7.3-7.5 12.2 0 0-1.8 6-1.4 6.7 0 .4 1 .6 1.4.7 1.3.3 1.5-.2 2.4-2.5.7-2 .7-3.8 1.2-5 1.3-3.2 3.6-2.7 4.7-3.3a7 7 0 0 0 1.6-1 31 31 0 0 0 3.8-6.6 3 3 0 0 0 0-1.7c-1-1.6-4.4-1.4-6.2.5zm48.5-58.2c-.4 0-1-.2-1.4 0-.2.3-1-.2-1.3-.2a3 3 0 0 0-1.5.4c-.2 0-.5.6-.7.7a10.4 10.4 0 0 1-3 1.6c-2.5.5-4.7 1-5.2 2.3s1 2 .3 4.8c-.5 1-1.6 2-3.7 4.4-4.2 4.4-8.6 8-11.3 14.2-1 2.2-1.8 7-3 9.3-1.5 3-7.6 10-9.8 12.4l-4 5.3c6.8 3 10.2 6.2 12.7 9.2 4-5.7 6.4-18.2 7.6-20.6 1.6-3 2.4-3.6 2.7-5 .3-1-.4-4 0-5 3-8 7.2-13 11.7-20.8l2-3c8.7-8.3 6.5-6 8-7.8a6.8 6.8 0 0 0 1-1v-1a1.5 1.5 0 0 0-1.2-.3z"/><path class="cls-3" d="M28.4 107.4c0 .2-.3.4 0 .7l1 .2s0 .3.3.5c1-.4.6-.7.6-1.6v-.4h-.6l-.2-.7a.8.8 0 0 0-.4-.3s-.4.4-.6.3c-.8-.3-1.2 1-.7 1.4.3.2.7 0 .7 0zm-2-1.7l.3-.3c.2-.7-.2-.4-1-.4 0 0-.4.5-.3.7s.4 0 .4 0c.3.5.6 0 .6 0zm-1.2-2.2a1.4 1.4 0 0 1 0-.8c0-.2.7-.3 1-.5a3.6 3.6 0 0 0 .5-.5l.4-.7s0-1-.3-1-1 .3-1 .6a2.6 2.6 0 0 0-.4.7l-.4.8h-.6s-1-.5-1.2-.2.5.4.6.6-.4.6-.5.8a1 1 0 0 0 0 .6 2 2 0 0 0 .8.7 5 5 0 0 0 1.2.2c1-.2.4-.5.3-1zm-1.5-3a2.2 2.2 0 0 0 1.3-.5l.2-.5s.2-1 0-1-1 .5-1 .8-.7 1.3-.5 1.3zM22 98.8v-1s-.5-.8-.8-.8-.4 1-.4 1a3.6 3.6 0 0 0 .5 2.2s.2.6.5.8.5 0 .6 0v-1a12.8 12.8 0 0 1-.4-1.3z"/></g></svg>