<svg xmlns="http://www.w3.org/2000/svg" viewBox="0 0 136.8 120.63">
  <defs>
    <style>
      .cls-1,.cls-4{fill:none;}.cls-2{fill:#d8bd8a;}.cls-3{fill:#401219;}
    </style>
  </defs>
    <g id="Layer" data-name="Layer">
      <path class="cls-1" d="M100.14 41.4l-.68.86.68-.86zm-74.5 64.95l.06.2a.23.23 0 0 0-.07-.2zM2 118.5h.05z"/>
      <path class="cls-2" d="M100.37 41.1l.5-.62a34.33 34.33 0 0 1 8.25-18c-4.55 4.5-8.38 9-9.3 14.44a13.07 13.07 0 0 0 .55 4.18zm-.13.17l-.1.13.1-.13zM1.3 113.8H.66c.14-.5 1-1.2 1-1.2a2.48 2.48 0 0 1 1.34-.3l1.2.3a22.47 22.47 0 0 1 3.1-.37 13.94 13.94 0 0 1 3.13 1.77 12.67 12.67 0 0 0 1.68.52c2.2-1.1.3-.2 9.8-6 .7-.38 1.5-.56 2.7-1.23l.7-.6a14.58 14.58 0 0 0-2.2.1c-1 .9-10.4 7.2-11 7.1-3.7-.7-1.7-2.7-6.7-2.2-1 .2-2.4-.2-3 .2-.3.2-1.1.6-1.1.6l-.5.3c-.3.7-.5 1-.3 1.6-.1-.5.8-.8 1.2-.9zm24.78 2.2c2.67-.35 7.24-1.4 9-3a20.16 20.16 0 0 1 2.87-2l.05-1a14.2 14.2 0 0 0-4.2 2.2c-5.62 3.23-6.2 3.42-7.72 3.8zm-21.32 2l-.76-.6a.13.13 0 0 1 0 .13c-2.38.08-2 1-2 1a10.54 10.54 0 0 1 2.76-.53zm25.72-27.65c4.77 1.68 3.83.92 6.13 1.33.5.08 1.4.6 1.8.46a3.75 3.75 0 0 0 1.6-1.68 7 7 0 0 0 .2-1.85 5.2 5.2 0 0 0-1.1-.4 7.93 7.93 0 0 0-1.8.6c-2-.7-1.8-.7-6.1-.8l-3.2-.8a2.76 2.76 0 0 1-.1-.6l-1.2.8 1.3 2.8zm-21.58-48c.4.1 1 .08 1.36.2 2.73.92 2.9.6 3.47-.4-.27-.85-.75-2.44-1-3.15-.1-.26-.5-.73-.46-1a1.45 1.45 0 0 1 .64-.75s-.9-.43-1-.12a5.3 5.3 0 0 0-.2 1.22 27.92 27.92 0 0 1 1.1 3.3c0 .24-1.7 0-1.7 0L6.7 39.9s-1.35-.78-2-.56c-.25.08-.68-.15-.8 0a4 4 0 0 0-.36 1 5.87 5.87 0 0 0 .74.24c1 .17 2.43 1.23 4.7 1.8zM130.45 1.13a2.78 2.78 0 0 1 1.33-.35c.2.05.42.57.64.58s.5-.44.7-.55l-.3-.8-3.54.8-1 1.6h.92a3.74 3.74 0 0 1 1.25-1.1zm-15.05 7.4a4.66 4.66 0 0 1 2.4-.65 4.92 4.92 0 0 1 .76.05 3 3 0 0 1 2.52-2.52 13.53 13.53 0 0 0 7.22-3c-2.3.4-2.1.5-4.3 1.7a5.08 5.08 0 0 1-2 .7 7.9 7.9 0 0 0-2 0 3.7 3.7 0 0 0-1.5 1.5c-.16.4-2.07 1.1-2.44 1.2-1.62.2-1.42.7-1.84 1a3 3 0 0 0-.77 1.2 12.25 12.25 0 0 0 0 2.7v5a10.88 10.88 0 0 0 .8-3.4c.27-2.3-.65-4 1.15-5.2z"/>
      <path class="cls-2" d="M114.2 17.46a62.2 62.2 0 0 0 4.5-4.46 3.58 3.58 0 0 0 .35-2.45c-.1-.7-.32-1.3-.44-1.92v.26c-4.7-.8-2.6 3.3-4.4 8.5z"/>
      <path class="cls-3" d="M136.5.84c-.15-.12-.6.07-.8 0s-.36-.4-.52-.46a2.72 2.72 0 0 0-1.16 0 4.28 4.28 0 0 0-1 .46c-.17.1-.43.53-.64.52s-.43-.53-.64-.58a2.9 2.9 0 0 0-2 .87c-.15.14-.52.64-.52.64h-.92c-5.18 4.3-8.95 1.6-9.75 5.6a4.92 4.92 0 0 0-.76-.1 4.66 4.66 0 0 0-2.4.6c-1.8 1.2-.9 2.9-1.2 5.2a10.88 10.88 0 0 1-.8 3.5c-1 1.1-13.6 11.6-15.2 19.2a9.56 9.56 0 0 0 .5 6.4L87.6 57s-2.6 1.73-3.22 2.1a30.22 30.22 0 0 0-5.6 5.17 28.3 28.3 0 0 0-3.2 6.96c-.3 1-1.6 8.66-1.6 8.66s-2.7 1.6-3.7 2a37 37 0 0 1-5.5 1.5c-2.2.4-11 .6-12.94.8a15 15 0 0 1-1.66 0C37.6 67.6 40.1 70.9 27.3 56.1c-.92-1.06-2.6-3.32-3.58-4.33-3.86-4-2-2.4-4.4-4.4-.9-5.28-1.7-4.88-3.36-6.7a14.46 14.46 0 0 1-1.3-1.7c-.36-.58-1-2.12-1.8-1.75a1.45 1.45 0 0 0-.64.75c0 .27.36.75.46 1 .3.72.78 2.3 1 3.16-.56 1-.73 1.32-3.47.4a11.6 11.6 0 0 1-4.5-1.43 15.3 15.3 0 0 0-2.2-.8 1 1 0 0 0-.6-.1 1.76 1.76 0 0 0-.7.46 1.66 1.66 0 0 0 0 1c.1.3.7.24.9.4a7 7 0 0 1 1.1.85A15.84 15.84 0 0 1 7 44.8l2.6.9c4.23 2.17 3 1.38 5.4 3.4 0 0 3.2 4.6 4.18 6.24 2.78 4.7 4 9 8.9 15.14 1.7 2.2 5.48 6.07 7.58 9.18a26.68 26.68 0 0 1 2.7 4.9 19.6 19.6 0 0 1 .36 2.96c-2.37-.7-7.2-2.3-9.6-1.7-.4.1-1.3.4-1.27.8a2.76 2.76 0 0 0 .14.6c4 1 2.6.78 5.8.9a8.9 8.9 0 0 1 3.5.77 7.93 7.93 0 0 1 1.8-.5 5.2 5.2 0 0 1 1.1.4 7 7 0 0 1-.2 1.8 3.75 3.75 0 0 1-1.6 1.7c-.5.1-1.4-.4-1.8-.5-2.2-.4-1.4.3-6.1-1.4l-2.7-.4-1.4-2.8c-2.7 1.4-2.9 1.6-4.5 4l-2 2.3a6.4 6.4 0 0 0-1.3 1.3 1.94 1.94 0 0 0 0 1.2 1.67 1.67 0 0 0 1.5.6 2.64 2.64 0 0 0 1-.6c.4-.5 1-2.7 1.6-3s2.1.4 2.8.3a6.4 6.4 0 0 0 1.7-1.1c1.5 1.6 3.9 4.1 5.6 2.7.4-.3.4-1.3.7-1.6a2.82 2.82 0 0 1 1.7-.9 1.44 1.44 0 0 1 1.5 1.7c-.2.9-.2.7-1.1 3h.5s1.8-2.2 4-2.5a2.9 2.9 0 0 1 2.5.7c.5.7.5 2.2 1.9 2.9.7.3 8.4 2.7 8.4 2.7 3.5 2 4.7 3 7.2 4.5.9.4-3.4 3.9-5.6 3.8s-3.1-.3-7.4-2.5a1.58 1.58 0 0 1-.7-1.6l.3-.9s-3.2-.3-4.2.1c-.3.1-1.6.4-1.9.5a2.28 2.28 0 0 1-1.8.3c-.3 0-1.6-.1-1.7-.4a7.42 7.42 0 0 0-1.6-1.8c-1.8 4.8-1.3 4.7-4.3 6.3 0 0 1.8.8 2.3.5a9.22 9.22 0 0 0 .8-1.5c.2-.4 1-1.4 1-1.4.1-.7 7.2-.9 9-.8v.6a8.18 8.18 0 0 1-.6 1.3 29.25 29.25 0 0 0-9.3 2.2c-.2-.1-.37-.8-.37-.8A11.72 11.72 0 0 1 32 112a47.58 47.58 0 0 1-5.9 1.7 74.27 74.27 0 0 1-13.1 2.9 10.73 10.73 0 0 1-5.5 2.6 4.5 4.5 0 0 1-2-1.1 5.87 5.87 0 0 0 1.54-.7c.5-.4-1-.9-1-.9a13.63 13.63 0 0 1-1.67-.9s-1.5-.5-1.8-1.1c-.1-.2.6-.4.7-.6.2-.47 3-.35 3-.35 2.1 0 5.54 2.05 7.6.85 4.7-2.2 10.1-4.6 12.4-6.9l-.5-1.2-1.1 1c-3 1.7 1.1-1.4-11.5 6.72l-.92.5a12.67 12.67 0 0 1-1.68-.5 13.94 13.94 0 0 0-3.1-1.72 22.47 22.47 0 0 0-3.1.4l-1.4-.4a2.48 2.48 0 0 0-1.4.3s-.9.7-1 1.2h.66c-.4.1-1.3.45-1.2.88a.54.54 0 0 0 .1.2c.36.35-.4-.1 1.6 1.16a11.64 11.64 0 0 1 3 2 10.73 10.73 0 0 0-2.8.5.83.83 0 0 0 .17.8 27.88 27.88 0 0 1 5.1 1.4c1.7 0 2.9-.5 6-2.35 15.6-2.7 13.4-1.9 20.7-6.1 1.3-1.2 8.2-4.9 14.8-2.6 3 1 11 4.8 12 4.8 4.8.1 7.1-6.6 7.1-6.6l7-5c7-4.7 15.3-11.9 18.9-16 8.8-10.4 14.6-30.9 14.6-30.9l2-7.2c.8-1.9 1.57-2.7 2-4.5 1.1-4.7-.32-3.4.3-7.9.4-2.7 11.17-19.6 11.57-20.4 1.3-2.6 9.4-9.9 9.9-10.2.94-.6 1.4-1.9 2.6-4.3 0 0-.1-.8-.3-.9zm-21.37 11.54c.06-2.9 1-3.87 3.52-3.5V8.6c.1.64.34 1.24.44 1.93a3.58 3.58 0 0 1-.4 2.45c-.4.6-4 3.95-4.6 4.5a20.3 20.3 0 0 0 .9-5.1zm-6 10.1a34.33 34.33 0 0 0-8.26 18l-.5.63a13.07 13.07 0 0 1-.53-4.1c.93-5.5 4.93-10.1 9.28-14.4zm-8.9 18.8l-.77 1zM42.8 93.63c-.2-.32-.6-2.13-1.25-4.45a35.05 35.05 0 0 0-3.14-7.9C36 77.12 28.3 67.63 26.2 64.5c-5-7.44-.18.53-9.36-14.85-3.47-3.73-3.8-3.6-6.42-4.67-3.37-.6-2.77-.8-4.5-1.75S4.7 42 4.7 42l3 1.1c4.67.78-.26 0 6.42 1.4l.35-1.22c.3-1.1-1.1-3.44-.87-3.6a1.82 1.82 0 0 1 .14-.2c.54-.56 1.07 1 1.53 2 .13.28 1.9 1.9 2.14 2.64.2.4.1 1.28.3 1.68a13.83 13.83 0 0 0 1.8 3.18c.6.73 2 2 2.7 2.66 1.5 1.52 3.1 3.54 9 10.17 0 0 5.4 6.8 6.9 9.3 2.5 3.9 8.2 10.5 11 14.3 1 .7 8-1.2 9-.1.7.4 2.8 6.4 2.8 6.4a73 73 0 0 0-7.7 6.8c-6.2 0-8-.6-10.2-4.7zm40.44.87C82.4 96 66 107.4 66 107.4l-2.08-1.86a24 24 0 0 0 2.14-3.12c.6-1.4 1.5-2.92.77-5.1-1.46-4.4-3.5-4.9-6.1-12.3 4.86-.04 9.82.08 13.6-2.94 2.24-.07 5.62 3.08 7 5a15.85 15.85 0 0 1 2.2 4.92 5.3 5.3 0 0 1-.3 2.5zm7.15-31.9a17.34 17.34 0 0 1-1.7 3.32c-1.9 3.34-2.1 3.55-3.6 4.34-1.2.6-3.5.06-4.8 3.25-.5 1.3-.5 3.1-1.2 5-.9 2.4-1.1 2.9-2.5 2.6-.4-.1-1.2-.3-1.4-.7-.4-.7 1.5-6.7 1.5-6.7a23.6 23.6 0 0 1 4-8.3 36.22 36.22 0 0 1 3.4-3.8c1.8-1.8 5.1-2 6.1-.5a3 3 0 0 1 0 1.7zm43.5-58.08a6.8 6.8 0 0 1-.9.92l-1 1.16c-8.3 8-6.4 5.84-9.1 9.63-4.4 7.93-8.7 12.77-11.7 20.77-.3 1 .3 4 .1 5-.4 1.5-1.2 2-2.7 5-1.3 2.43-3.6 15-7.7 20.57-2.6-3-6-6.12-12.9-9.17l4.1-5.24c2.2-2.48 8.3-9.47 9.8-12.4 1.1-2.16 2.1-7 3-9.32 2.6-6 6.7-9.43 11.9-14.9 2.8-2.94 3.8-3.73 2.7-7-1-2.54 2.4-3.34 5.1-3.94a10.45 10.45 0 0 0 3-1.46c.2-.16.5-.62.8-.77a3.12 3.12 0 0 1 1.7-.37c.3 0 1.1.5 1.3.35.5-.36 1.1-.12 1.4-.12a1.54 1.54 0 0 1 1.1.3c.1.16.1.76 0 1z"/>
      <path class="cls-2" d="M59.83 105.66c-2.54-1.56-3.7-2.57-7.17-4.5 0 0-7.68-2.34-8.32-2.64-1.47-.7-1.4-2.2-1.9-2.92a2.9 2.9 0 0 0-2.44-.7c-2.2.3-3.9 2.64-3.9 2.64h-.5c.87-2.38.9-2.2 1.1-3a1.44 1.44 0 0 0-1.43-1.73 2.82 2.82 0 0 0-1.62.9c-.3.3-.34 1.4-.7 1.6-1.75 1.4-4.1-1.1-5.6-2.7a6.4 6.4 0 0 1-1.73 1.1c-.7.1-2.15-.6-2.77-.3s-1.13 2.5-1.56 3a2.64 2.64 0 0 1-1 .6c.1.3-.3 1.9 0 2.8.3 1.2 1.1 1.2 1.7 3.5a4.44 4.44 0 0 0 1.7 2.2 8.2 8.2 0 0 1 1.8 1.2.23.23 0 0 1 0 .2l.4 1.1c-2.4 2.4-8.3 5-12.5 7-2 1.2-5.5-.8-7.6-.9 0 0-2.8-.1-3 .3-.1.3-.8.4-.7.7.2.6 1.8 1.1 1.8 1.1a13.63 13.63 0 0 0 1.6.9s1.5.5 1 .9a5.87 5.87 0 0 1-1.6.7l.2.3s1.3.9 1.7.9a10.74 10.74 0 0 0 5.5-2.6 74.27 74.27 0 0 0 13.1-3 47.58 47.58 0 0 0 5.9-1.7 11.72 11.72 0 0 0 2.1-2.7s.1.7.3.7a29.25 29.25 0 0 1 9.3-2.2 8.18 8.18 0 0 0 .5-1.3v-.6c-1.8-.2-8.9 0-9 .7 0 0-.8 1-1 1.4a9.22 9.22 0 0 1-.9 1.6c-.5.3-2.3-.4-2.3-.4 3-1.6 2.5-1.6 4.3-6.3a7.42 7.42 0 0 1 1.6 1.8c.1.3 1.4.3 1.7.4a2.28 2.28 0 0 0 1.8-.2c.3-.1 1.6-.3 1.82-.4 1-.4 4.16-.1 4.16-.1l-.3.9a1.58 1.58 0 0 0 .7 1.6c4.34 2.2 5.3 2.48 7.44 2.6 1.56.1 4.5-1.8 5.5-3 .36-.54.27-.6.1-.7zM22.4 101.1c-.1.1-.46.07-.6 0a6.7 6.7 0 0 1-.9-2.1c-.07-.36 0-2 .34-2.08s.74.53.8.8 0 .75 0 1a12.8 12.8 0 0 0 .36 1.28s.17.9 0 1.1zm4.32 4.33l-.35.24s-.26.5-.64 0c0 0-.27.06-.32 0s.3-.7.3-.7c.9.03 1.3-.33 1.1.45zm.35-4.4c0 .2-.46.65-.46.65a3.64 3.64 0 0 1-.4.55c-.2.15-.8.26-1 .5a1.36 1.36 0 0 0 0 .8c.1.4.8.68-.3.92a4.9 4.9 0 0 1-1.1-.14 1.93 1.93 0 0 1-.7-.6 1.1 1.1 0 0 1 0-.6c.1-.2.6-.5.5-.7s-.6-.4-.5-.6 1.3.3 1.3.3l.6.1.4-.8a2.65 2.65 0 0 1 .3-.7c.2-.2.9-.6 1.2-.5s.6.8.5 1zm2.64 7.62c-.4-.17-.4-.45-.4-.45l-.8-.12c-.3-.26-.1-.48 0-.7 0 0-.4.26-.7 0-.5-.4 0-1.7.8-1.38.2.07.5-.35.7-.35a.75.75 0 0 1 .4.22c.1.14.1.6.3.7s.5-.1.6 0 0 .32 0 .53c0 .9.5 1.23-.6 1.55z"/>
      <path class="cls-4" d="M2.23 118.4h-.1m0 .03h-.08m.28-.08h-.1"/>
      <path class="cls-2" d="M60.76 91.62s-2.08-6-2.77-6.36c-1-1.07-8 .84-9 .12C46.2 81.56 40.4 75 37.9 71c-1.53-2.5-6.88-9.25-6.88-9.25-5.88-6.65-7.47-8.64-9-10.17-.65-.67-2.07-1.93-2.66-2.66a13.83 13.83 0 0 1-1.8-3.18c-.14-.4-.1-1.28-.23-1.68-.25-.74-2-2.36-2.14-2.64-.5-1.06-1-2.53-1.6-2a1.82 1.82 0 0 0-.2.2c-.3.16 1.1 2.5.8 3.6l-.4 1.2a25.1 25.1 0 0 1-4.4-1C7.1 43 8.3 43.3 4.7 42c0 0-.63.3 1.17 1.27S7 44.4 10.37 45c2.63 1.08 2.92.9 6.4 4.68C26 65 21.15 57.1 26.17 64.52c2.1 3.12 9.84 12.6 12.25 16.77a35.05 35.05 0 0 1 3.15 7.9c.66 2.3 1 4.1 1.24 4.4.9 1.6 2.2 3.7 4.4 4.2a30.7 30.7 0 0 0 5.9.5 72.88 72.88 0 0 1 7.7-6.8zM46.2 87.34a1.1 1.1 0 0 1 .64-.64c.43-.06 1.76 1.2 2.08 1.5 0 0 1.8.84 2.08 1.4a1 1 0 0 1 0 .74 1.7 1.7 0 0 1-1.16.35c-.66-.1-3.84-2.4-3.64-3.4z"/>
      <path class="cls-3" d="M49.84 90.7a1.7 1.7 0 0 0 1.16-.35 1 1 0 0 0 0-.75c-.3-.55-2.08-1.4-2.08-1.4-.32-.3-1.65-1.55-2.08-1.5a1.1 1.1 0 0 0-.64.65c-.2 1 3 3.28 3.64 3.34z"/>
      <path class="cls-2" d="M81.33 87.1c-1.37-1.94-4.74-5.08-7-5-3.76 3-8.72 2.9-13.57 2.9 2.58 7.4 4.62 7.9 6.1 12.3.72 2.18-.2 3.7-.78 5.1a24 24 0 0 1-2.14 3.1l2.06 1.9S82.4 96 83.24 94.5a5.3 5.3 0 0 0 .3-2.5 15.85 15.85 0 0 0-2.2-4.9zm2.9-25.65c-1.93 1.5-6.4 7.3-7.4 12.17 0 0-1.88 5.93-1.47 6.7.18.34 1 .6 1.4.7 1.33.3 1.55-.2 2.46-2.55.72-1.87.7-3.72 1.2-5 1.26-3.2 3.54-2.64 4.73-3.25a7.1 7.1 0 0 0 1.4-.88 30.93 30.93 0 0 0 3.84-6.78 3 3 0 0 0 0-1.7c-1-1.47-4.4-1.22-6.2.6zM132.75 3.2c-.3 0-.9-.23-1.35.13-.2.16-1-.3-1.25-.35a3.12 3.12 0 0 0-1.62.4c-.23.14-.55.6-.77.76a10.45 10.45 0 0 1-3 1.46c-2.47.53-4.62 1.13-5.16 2.3s1.05 2.07.34 4.85c-.4 1.13-1.53 2.14-3.67 4.4-4.15 4.4-8.58 8-11.25 14.2-.88 2.27-1.85 7.15-3 9.3-1.57 2.94-7.64 9.94-9.86 12.4l-4.1 5.25c6.95 3 10.3 6.18 12.88 9.17 4.12-5.62 6.44-18.14 7.7-20.57 1.54-3 2.35-3.47 2.7-5 .23-1-.4-3.93-.12-5 3-7.94 7.3-12.8 11.75-20.73l2.16-3c8.6-8.22 6.35-6 7.94-7.78a6.8 6.8 0 0 0 .85-1c.12-.2.18-.8 0-1a1.54 1.54 0 0 0-1.16-.3z"/>
      <path class="cls-3" d="M28.4 107.4c-.14.2-.3.43 0 .68l.87.12s0 .27.45.45c1.07-.32.6-.67.6-1.55 0-.2.08-.43 0-.52s-.47.08-.6 0-.1-.56-.22-.7a.75.75 0 0 0-.4-.23c-.2 0-.5.42-.7.35-.77-.32-1.23 1-.74 1.4.34.24.74 0 .74 0zm-2.02-1.74l.35-.24c.17-.77-.23-.46-1.07-.46 0 0-.34.55-.23.7s.32 0 .32 0c.37.5.63 0 .63 0zm-1.22-2.14a1.36 1.36 0 0 1 0-.8c.14-.24.73-.36 1-.5a3.64 3.64 0 0 0 .5-.55s.43-.44.45-.64-.1-.94-.4-1-.9.3-1.1.52a2.65 2.65 0 0 0-.3.7l-.4.86-.5-.1s-1.1-.5-1.2-.2.5.4.6.6-.4.6-.5.8a1.1 1.1 0 0 0 0 .6 1.93 1.93 0 0 0 .8.7 4.9 4.9 0 0 0 1.1.2c1.1-.2.4-.5.3-.9zm-1.42-2.88A2.24 2.24 0 0 0 25 100l.24-.5s.17-1.08-.08-1.12-1 .6-1 .9-.63 1.32-.42 1.36zM22 98.74c0-.25.06-.75 0-1s-.53-.88-.8-.8-.36 1-.36 1a3.6 3.6 0 0 0 .44 2.25s.22.6.5.8.47.1.57 0 0-1.1 0-1.1a12.8 12.8 0 0 1-.35-1.2z"/>
    </g>
</svg>
